<?xml version="1.0" encoding="utf-8"?>
<!-- Generator: Adobe Illustrator 24.3.0, SVG Export Plug-In . SVG Version: 6.00 Build 0)  -->
<svg version="1.1" id="Ebene_1" xmlns="http://www.w3.org/2000/svg" xmlns:xlink="http://www.w3.org/1999/xlink" x="0px" y="0px"
	 viewBox="0 0 256 256" style="enable-background:new 0 0 256 256;" xml:space="preserve">
<polygon points="77.14,118.52 77.1,118.56 77.14,118.56 "/>
<g>
	<path d="M174.38,116.05l0.05,4.73c-0.94,11.83-5.45,24.66-14.03,32.94c-9.15,8.83-21.2,13.69-33.92,13.69s-24.77-4.86-33.92-13.69
		c-8.58-8.28-12.91-20.76-13.85-32.59c0-1.7,0.02-3.6,0.03-3.81l0.03-0.21l-0.03-1.06h-6.53l0.12,3.23
		c0.53,14.26,5.58,28.98,15.87,38.91c9.54,9.2,21.88,14.58,35.03,15.34v60.4l-0.15-0.19c-32.19-0.29-35.88,10-35.88,10h2.95h67.15
		l4.47,0.15h2.95c0,0-3.58-9.97-34.41-10v-60.4c12.93-0.89,25.04-6.24,34.43-15.31c10.29-9.93,15.52-25,16.05-39.25l0.07-2.89
		H174.38z"/>
	<path d="M165.36,244.34h-3.59l-4.49-0.15l-70.72,0l0.21-0.6c0.15-0.43,4.06-10.3,34.95-10.3c0.35,0,0.7,0,1.06,0v-59.35
		c-13.07-0.86-25.44-6.33-34.89-15.44c-9.59-9.25-15.42-23.54-16.01-39.21l-0.14-3.69h7.43l0.04,1.53l-0.04,0.25
		c-0.01,0.15-0.02,1.98-0.03,3.74c1.05,13.1,6.05,24.87,13.72,32.27c9.07,8.75,21,13.56,33.61,13.56c12.61,0,24.54-4.82,33.61-13.56
		c7.66-7.39,12.86-19.6,13.9-32.65l-0.06-5.14h7.4l-0.08,3.35c-0.58,15.56-6.63,30.35-16.19,39.56c-9.29,8.96-21.46,14.42-34.3,15.4
		v59.54c30.38,0.12,34.23,9.88,34.38,10.3L165.36,244.34z M87.95,243.3h69.35l4.49,0.15l2.18,0c-1.42-2.11-8.04-9.09-33.65-9.11
		l-0.44,0v-61.26l0.41-0.03c12.78-0.88,24.91-6.27,34.16-15.18c9.39-9.06,15.34-23.62,15.92-38.95l0.06-2.43h-5.59l0.04,4.28
		c-1.06,13.31-6.36,25.72-14.17,33.26c-9.23,8.91-21.39,13.81-34.23,13.81c-12.84,0-24.99-4.9-34.23-13.81
		c-7.83-7.55-12.92-19.53-13.99-32.88c0-1.48,0.01-3.62,0.03-3.87l0.03-0.21l-0.01-0.59h-5.64l0.1,2.77
		c0.58,15.45,6.32,29.52,15.74,38.61c9.39,9.06,21.73,14.46,34.74,15.22l0.42,0.02v62.1l-0.81-1.02
		C96.08,233.99,89.36,241.16,87.95,243.3z"/>
</g>
<path d="M85.35,115.79v3.4c0,23.24,18.45,42.08,41.2,42.08c22.76,0,41.2-18.84,41.2-42.08v-3.4H85.35z"/>
<path d="M126.55,11.98c-22.76,0-41.2,18.84-41.2,42.08v37.52h-0.03v17.25h82.43v-8.88h0V54.05
	C167.76,30.82,149.31,11.98,126.55,11.98z M99.83,101.91c-2.11,0-3.82-1.71-3.82-3.82s1.71-3.82,3.82-3.82s3.82,1.71,3.82,3.82
	S101.94,101.91,99.83,101.91z M99.83,84.26c-2.11,0-3.82-1.71-3.82-3.82s1.71-3.82,3.82-3.82s3.82,1.71,3.82,3.82
	S101.94,84.26,99.83,84.26z M99.83,67.21c-2.11,0-3.82-1.71-3.82-3.82c0-2.11,1.71-3.82,3.82-3.82s3.82,1.71,3.82,3.82
	C103.65,65.5,101.94,67.21,99.83,67.21z M99.83,48.98c-2.11,0-3.82-1.71-3.82-3.82s1.71-3.82,3.82-3.82s3.82,1.71,3.82,3.82
	S101.94,48.98,99.83,48.98z M117.64,101.91c-2.11,0-3.82-1.71-3.82-3.82s1.71-3.82,3.82-3.82s3.82,1.71,3.82,3.82
	S119.75,101.91,117.64,101.91z M117.64,84.26c-2.11,0-3.82-1.71-3.82-3.82s1.71-3.82,3.82-3.82s3.82,1.71,3.82,3.82
	S119.75,84.26,117.64,84.26z M117.64,67.21c-2.11,0-3.82-1.71-3.82-3.82c0-2.11,1.71-3.82,3.82-3.82s3.82,1.71,3.82,3.82
	C121.46,65.5,119.75,67.21,117.64,67.21z M117.64,48.98c-2.11,0-3.82-1.71-3.82-3.82s1.71-3.82,3.82-3.82s3.82,1.71,3.82,3.82
	S119.75,48.98,117.64,48.98z M117.64,31.92c-2.11,0-3.82-1.71-3.82-3.82s1.71-3.82,3.82-3.82s3.82,1.71,3.82,3.82
	S119.75,31.92,117.64,31.92z M135.44,101.91c-2.11,0-3.82-1.71-3.82-3.82s1.71-3.82,3.82-3.82c2.11,0,3.82,1.71,3.82,3.82
	S137.55,101.91,135.44,101.91z M135.44,84.26c-2.11,0-3.82-1.71-3.82-3.82s1.71-3.82,3.82-3.82c2.11,0,3.82,1.71,3.82,3.82
	S137.55,84.26,135.44,84.26z M135.44,67.21c-2.11,0-3.82-1.71-3.82-3.82c0-2.11,1.71-3.82,3.82-3.82c2.11,0,3.82,1.71,3.82,3.82
	C139.26,65.5,137.55,67.21,135.44,67.21z M135.44,48.98c-2.11,0-3.82-1.71-3.82-3.82s1.71-3.82,3.82-3.82
	c2.11,0,3.82,1.71,3.82,3.82S137.55,48.98,135.44,48.98z M135.44,31.92c-2.11,0-3.82-1.71-3.82-3.82s1.71-3.82,3.82-3.82
	c2.11,0,3.82,1.71,3.82,3.82S137.55,31.92,135.44,31.92z M153.24,101.91c-2.11,0-3.82-1.71-3.82-3.82s1.71-3.82,3.82-3.82
	s3.82,1.71,3.82,3.82S155.36,101.91,153.24,101.91z M153.24,84.26c-2.11,0-3.82-1.71-3.82-3.82s1.71-3.82,3.82-3.82
	s3.82,1.71,3.82,3.82S155.36,84.26,153.24,84.26z M153.24,67.21c-2.11,0-3.82-1.71-3.82-3.82c0-2.11,1.71-3.82,3.82-3.82
	s3.82,1.71,3.82,3.82C157.07,65.5,155.36,67.21,153.24,67.21z M153.24,48.98c-2.11,0-3.82-1.71-3.82-3.82s1.71-3.82,3.82-3.82
	s3.82,1.71,3.82,3.82S155.36,48.98,153.24,48.98z"/>
</svg>
